<svg width="116" height="34" viewBox="0 0 116 34" fill="none" xmlns="http://www.w3.org/2000/svg">
<path fill-rule="evenodd" clip-rule="evenodd" d="M34 27.5221C34 30.8999 31.2622 33.6382 27.8849 33.6382L6.11511 33.6382C2.73783 33.6382 2.39385e-07 30.8999 5.34682e-07 27.5221L2.40607e-06 6.11594C2.70137e-06 2.73813 2.73783 -0.000117174 6.11511 -0.000116879L27.8849 -0.000114976C31.2622 -0.00011468 34 2.73814 34 6.11594L34 27.5221ZM27.2734 17.9811L20.027 17.9811C19.0138 17.9811 18.1784 18.8058 18.2944 19.8125C18.7974 24.1784 21.2368 28.0151 27.2728 28.6526C28.2804 28.759 29.1079 27.9239 29.1079 26.9105L29.1079 19.8159C29.1079 18.8026 28.2866 17.9811 27.2734 17.9811ZM29.1079 6.75812L29.1079 14.0056C29.1079 15.019 28.2866 15.8405 27.2734 15.8405L20.1799 15.8405C19.1667 15.8405 18.3317 15.0128 18.4381 14.0051C19.0754 7.96809 22.9115 5.52836 27.2768 5.02529C28.2833 4.9093 29.1079 5.74478 29.1079 6.75812ZM6.72662 15.657L13.973 15.657C14.9862 15.657 15.8216 14.8323 15.7056 13.8256C15.2026 9.45962 12.7632 5.62292 6.72718 4.98549C5.7196 4.87909 4.89209 5.7142 4.89209 6.72754L4.89209 13.8222C4.89209 14.8355 5.71343 15.657 6.72662 15.657ZM4.89208 26.9105L4.89209 19.663C4.89209 18.6497 5.71344 17.8282 6.72662 17.8282L13.8201 17.8282C14.8333 17.8282 15.6683 18.6558 15.5619 19.6636C14.9246 25.7006 11.0885 28.1403 6.72318 28.6434C5.71666 28.7593 4.89208 27.9239 4.89208 26.9105Z" fill="#F94F36"/>
<path d="M49.1267 23.9501C48.9141 24.087 48.985 24.5892 49.2211 24.7033C49.9296 24.6576 50.9214 24.6348 51.7007 24.6348C52.6926 24.6348 53.7553 24.6576 54.7944 24.7033C55.0541 24.612 55.0778 24.0642 54.8652 23.9044L54.2512 23.8359C53.7553 23.7903 53.4955 23.6762 53.4955 23.5392C53.4955 23.4023 53.5427 23.2425 53.7081 22.923C54.4874 21.485 55.5973 19.7504 56.5183 18.4494C56.8725 18.883 58.6673 21.5535 59.0215 22.1698C59.6119 23.1284 59.7064 23.3338 59.7064 23.5164C59.7064 23.6534 59.423 23.7675 58.8326 23.8359L58.195 23.9044C57.9588 24.0185 58.0533 24.612 58.2658 24.7033C59.5411 24.6576 60.6038 24.6348 62.2332 24.6348C64.1461 24.6348 64.8782 24.6576 65.9173 24.7033C66.1534 24.5435 66.1534 24.0642 65.9881 23.9044L65.256 23.8131C64.3586 23.699 63.7683 23.3795 62.9417 22.1698C62.0916 20.9372 60.9344 19.2254 59.1632 16.5777C58.9271 16.2354 58.8326 15.9843 58.8326 15.8702C58.8326 15.7561 59.0688 15.4137 59.3049 15.0942C60.4149 13.6334 61.4539 12.127 62.5875 11.0086C63.0126 10.5977 63.4376 10.5064 63.9336 10.4379L64.9254 10.301C65.0907 10.0956 65.0671 9.61626 64.831 9.50214C64.0753 9.54779 63.107 9.57061 61.9735 9.57061C60.8635 9.57061 60.1079 9.54779 59.3758 9.50214C59.116 9.61626 59.116 10.1412 59.3049 10.301L60.2495 10.4608C60.5565 10.5064 60.7219 10.6205 60.7219 10.689C60.7219 10.8031 60.7219 10.9629 60.4621 11.3738C59.73 12.5835 58.9507 13.7019 58.0769 14.98C57.3448 13.9529 56.4947 12.6976 55.8571 11.6248C55.5737 11.1455 55.4792 10.9401 55.4792 10.7347C55.4792 10.5749 55.9043 10.4608 56.2821 10.3923L56.8017 10.301C56.967 10.1184 56.967 9.61626 56.7072 9.50214C55.9751 9.54779 55.0305 9.57061 53.1177 9.57061C51.6771 9.57061 50.1893 9.54779 49.4337 9.50214C49.1975 9.63909 49.1975 10.1184 49.41 10.301L49.8115 10.3695C50.8742 10.5521 51.3701 10.8488 51.9133 11.602C53.0232 13.1312 54.511 15.3909 55.2903 16.5093C55.5973 16.9201 55.7154 17.2168 55.7154 17.3081C55.7154 17.4451 55.5973 17.719 55.3848 18.0157C54.3693 19.4765 53.0941 21.2568 52.4092 22.1241C51.6299 23.1512 51.0867 23.699 49.6698 23.8816L49.1267 23.9501Z" fill="#323232"/>
<path d="M73.9141 9.20542C68.9784 9.20542 65.4833 12.6976 65.4833 17.2168C65.4833 21.9872 68.9312 25 73.6779 25C78.7552 25 82.2031 22.01 82.2031 17.0342C82.2031 12.4009 78.8261 9.20542 73.9141 9.20542ZM78.4246 17.331C78.4246 21.0285 77.2202 23.9501 74.1266 23.9501C70.2773 23.9501 69.2618 19.4765 69.2618 16.6919C69.2618 12.8802 70.8204 10.2553 73.7251 10.2553C76.6535 10.2553 78.4246 13.428 78.4246 17.331Z" fill="#323232"/>
<path d="M98.547 15.2996C98.547 13.4508 98.6415 11.7389 98.9013 11.1227C99.1138 10.6434 99.5625 10.4608 100.177 10.3695L100.602 10.301C100.791 10.1184 100.743 9.63909 100.602 9.50214C99.6806 9.54779 98.8304 9.57061 97.9567 9.57061C96.9884 9.57061 96.0674 9.54779 94.7922 9.50214C94.6505 9.63909 94.6033 10.1184 94.7922 10.301L95.4298 10.3923C96.0674 10.4836 96.587 10.6434 96.7995 11.1227C97.0593 11.7389 97.1537 13.4508 97.1537 15.2996V18.4494C97.1537 18.8602 97.1537 19.2482 97.0593 19.4765C96.5161 18.9515 95.8313 18.1526 94.7922 16.9658L92.8085 14.7061C90.6831 12.2639 89.1481 10.5292 88.9119 9.50214C88.416 9.54779 87.7311 9.57061 86.9282 9.57061C85.96 9.57061 84.7792 9.54779 83.6693 9.50214C83.4331 9.57061 83.4095 10.1184 83.5748 10.301L84.2361 10.3923C85.0626 10.5064 85.3932 10.7803 85.5821 11.1683C85.7238 11.4879 85.7474 11.8531 85.7474 13.1084V18.9058C85.7474 20.7546 85.6766 22.4665 85.4168 23.0827C85.2279 23.5621 84.7556 23.7218 84.118 23.8359L83.7165 23.9044C83.5276 24.087 83.5748 24.5663 83.7165 24.7033C84.6139 24.6576 85.4877 24.6348 86.3615 24.6348C87.3061 24.6348 88.2507 24.6576 89.5259 24.7033C89.6676 24.5663 89.7149 24.087 89.5259 23.9044L88.8647 23.8131C88.2507 23.7218 87.7075 23.5621 87.495 23.0827C87.2352 22.4665 87.1408 20.7546 87.1408 18.9058V14.4779C87.1408 13.6334 87.1408 13.2454 87.2588 13.0171C87.6839 13.3595 88.4632 14.3181 89.8329 15.9387L95.2881 22.4665C96.398 23.7903 97.1773 24.9544 97.201 24.9544C97.7677 24.9544 98.429 24.7033 98.5943 24.4294C98.547 23.6762 98.547 22.2382 98.547 20.7546V15.2996Z" fill="#323232"/>
<path d="M106.837 21.3481C106.837 23.4708 106.695 23.6762 105.633 23.7903L104.57 23.9044C104.381 24.0414 104.381 24.5663 104.57 24.7033C106.223 24.6576 107.451 24.6348 108.585 24.6348C109.647 24.6348 110.828 24.6576 112.363 24.7033C112.529 24.5663 112.529 24.0414 112.363 23.9044L111.419 23.7903C110.356 23.6534 110.214 23.4708 110.214 21.3481V11.2825C110.214 10.689 110.285 10.6205 110.852 10.6205H112.269C114.04 10.6205 114.371 11.6933 114.772 13.1541C114.89 13.3367 115.528 13.291 115.646 13.0856C115.599 11.7846 115.764 9.93581 116 9.15977C115.953 9.0913 115.787 9 115.646 9C115.504 9 115.433 9.02283 115.339 9.06847C115.126 9.54779 114.772 9.57061 113.213 9.57061H104.428C102.634 9.57061 102.563 9.47932 102.445 9.0913C102.35 9.02283 102.232 9 102.114 9C101.996 9 101.878 9.04565 101.783 9.11412C101.618 10.0043 101.5 11.4194 101.004 12.9943C101.146 13.291 101.595 13.3367 101.878 13.1997C102.586 11.5335 103.082 10.6205 104.806 10.6205H106.27C106.837 10.6205 106.837 10.7347 106.837 11.2825V21.3481Z" fill="#323232"/>
</svg>
