<svg width="116" height="34" viewBox="0 0 116 34" fill="none" xmlns="http://www.w3.org/2000/svg">
<path fill-rule="evenodd" clip-rule="evenodd" d="M27.5221 -2.67341e-07C30.8999 -1.19693e-07 33.6382 2.73783 33.6382 6.11511L33.6382 27.8849C33.6382 31.2622 30.8999 34 27.5221 34L6.11594 34C2.73813 34 -0.000115807 31.2622 -0.00011566 27.8849L-0.000114708 6.11511C-0.000114561 2.73783 2.73814 -1.35068e-06 6.11594 -1.20304e-06L27.5221 -2.67341e-07ZM17.9811 6.72662L17.9811 13.973C17.9811 14.9862 18.8058 15.8216 19.8125 15.7056C24.1784 15.2026 28.0151 12.7632 28.6526 6.72718C28.759 5.71959 27.9239 4.89209 26.9105 4.89209L19.8159 4.89209C18.8026 4.89209 17.9811 5.71343 17.9811 6.72662ZM6.75813 4.89208L14.0056 4.89209C15.019 4.89209 15.8405 5.71343 15.8405 6.72662L15.8405 13.8201C15.8405 14.8333 15.0128 15.6683 14.0051 15.5619C7.96809 14.9246 5.52836 11.0885 5.02529 6.72318C4.9093 5.71666 5.74478 4.89208 6.75813 4.89208ZM15.657 27.2734L15.657 20.027C15.657 19.0138 14.8323 18.1784 13.8256 18.2944C9.45962 18.7974 5.62292 21.2368 4.98549 27.2728C4.87909 28.2804 5.7142 29.1079 6.72754 29.1079L13.8222 29.1079C14.8355 29.1079 15.657 28.2866 15.657 27.2734ZM26.9105 29.1079L19.663 29.1079C18.6497 29.1079 17.8282 28.2866 17.8282 27.2734L17.8282 20.1799C17.8282 19.1667 18.6558 18.3317 19.6636 18.4381C25.7006 19.0754 28.1403 22.9115 28.6434 27.2768C28.7593 28.2833 27.9239 29.1079 26.9105 29.1079Z" fill="#F94F36"/>
<path d="M48.9457 24.131C48.7332 24.2679 48.804 24.7701 49.0402 24.8842C49.7487 24.8385 50.7405 24.8157 51.5198 24.8157C52.5117 24.8157 53.5744 24.8385 54.6135 24.8842C54.8732 24.7929 54.8968 24.2451 54.6843 24.0853L54.0703 24.0169C53.5744 23.9712 53.3146 23.8571 53.3146 23.7201C53.3146 23.5832 53.3618 23.4234 53.5271 23.1039C54.3065 21.6659 55.4164 19.9313 56.3374 18.6303C56.6916 19.0639 58.4864 21.7344 58.8406 22.3507C59.431 23.3093 59.5255 23.5147 59.5255 23.6973C59.5255 23.8343 59.2421 23.9484 58.6517 24.0169L58.0141 24.0853C57.7779 24.1995 57.8724 24.7929 58.0849 24.8842C59.3602 24.8385 60.4229 24.8157 62.0523 24.8157C63.9652 24.8157 64.6973 24.8385 65.7364 24.8842C65.9725 24.7244 65.9725 24.2451 65.8072 24.0853L65.0751 23.994C64.1777 23.8799 63.5873 23.5604 62.7608 22.3507C61.9106 21.1181 60.7535 19.4063 58.9823 16.7587C58.7462 16.4163 58.6517 16.1652 58.6517 16.0511C58.6517 15.937 58.8879 15.5946 59.124 15.2751C60.2339 13.8143 61.273 12.3079 62.4066 11.1895C62.8317 10.7786 63.2567 10.6873 63.7527 10.6189L64.7445 10.4819C64.9098 10.2765 64.8862 9.79717 64.65 9.68305C63.8943 9.7287 62.9261 9.75152 61.7926 9.75152C60.6826 9.75152 59.9269 9.7287 59.1949 9.68305C58.9351 9.79717 58.9351 10.3221 59.124 10.4819L60.0686 10.6417C60.3756 10.6873 60.5409 10.8015 60.5409 10.8699C60.5409 10.984 60.5409 11.1438 60.2812 11.5547C59.5491 12.7644 58.7698 13.8828 57.896 15.1609C57.1639 14.1338 56.3138 12.8785 55.6762 11.8057C55.3928 11.3264 55.2983 11.121 55.2983 10.9156C55.2983 10.7558 55.7234 10.6417 56.1012 10.5732L56.6208 10.4819C56.7861 10.2993 56.7861 9.79717 56.5263 9.68305C55.7942 9.7287 54.8496 9.75152 52.9368 9.75152C51.4962 9.75152 50.0084 9.7287 49.2527 9.68305C49.0166 9.82 49.0166 10.2993 49.2291 10.4819L49.6306 10.5504C50.6933 10.733 51.1892 11.0297 51.7324 11.7829C52.8423 13.3122 54.3301 15.5718 55.1094 16.6902C55.4164 17.101 55.5345 17.3977 55.5345 17.489C55.5345 17.626 55.4164 17.8999 55.2038 18.1966C54.1884 19.6574 52.9131 21.4377 52.2283 22.305C51.449 23.3321 50.9058 23.8799 49.4889 24.0625L48.9457 24.131Z" fill="#7D7D7D"/>
<path d="M73.7332 9.38633C68.7975 9.38633 65.3024 12.8785 65.3024 17.3977C65.3024 22.1681 68.7503 25.1809 73.497 25.1809C78.5743 25.1809 82.0222 22.1909 82.0222 17.2151C82.0222 12.5818 78.6452 9.38633 73.7332 9.38633ZM78.2437 17.5119C78.2437 21.2094 77.0393 24.131 73.9457 24.131C70.0964 24.131 69.0809 19.6574 69.0809 16.8728C69.0809 13.0611 70.6395 10.4363 73.5442 10.4363C76.4725 10.4363 78.2437 13.6089 78.2437 17.5119Z" fill="#7D7D7D"/>
<path d="M98.3661 15.4805C98.3661 13.6317 98.4606 11.9199 98.7204 11.3036C98.9329 10.8243 99.3816 10.6417 99.9956 10.5504L100.421 10.4819C100.61 10.2993 100.562 9.82 100.421 9.68305C99.4997 9.7287 98.6495 9.75152 97.7757 9.75152C96.8075 9.75152 95.8865 9.7287 94.6113 9.68305C94.4696 9.82 94.4223 10.2993 94.6113 10.4819L95.2489 10.5732C95.8865 10.6645 96.406 10.8243 96.6186 11.3036C96.8784 11.9199 96.9728 13.6317 96.9728 15.4805V18.6303C96.9728 19.0411 96.9728 19.4291 96.8784 19.6574C96.3352 19.1324 95.6504 18.3335 94.6113 17.1467L92.6276 14.887C90.5022 12.4448 88.9672 10.7102 88.731 9.68305C88.2351 9.7287 87.5502 9.75152 86.7473 9.75152C85.7791 9.75152 84.5983 9.7287 83.4884 9.68305C83.2522 9.75152 83.2286 10.2993 83.3939 10.4819L84.0551 10.5732C84.8817 10.6873 85.2123 10.9612 85.4012 11.3492C85.5429 11.6688 85.5665 12.034 85.5665 13.2893V19.0868C85.5665 20.9355 85.4957 22.6474 85.2359 23.2636C85.047 23.743 84.5747 23.9027 83.9371 24.0169L83.5356 24.0853C83.3467 24.2679 83.3939 24.7472 83.5356 24.8842C84.433 24.8385 85.3068 24.8157 86.1805 24.8157C87.1252 24.8157 88.0698 24.8385 89.345 24.8842C89.4867 24.7472 89.5339 24.2679 89.345 24.0853L88.6838 23.994C88.0698 23.9027 87.5266 23.743 87.3141 23.2636C87.0543 22.6474 86.9599 20.9355 86.9599 19.0868V14.6588C86.9599 13.8143 86.9599 13.4263 87.0779 13.198C87.503 13.5404 88.2823 14.499 89.652 16.1196L95.1072 22.6474C96.2171 23.9712 96.9964 25.1353 97.0201 25.1353C97.5868 25.1353 98.2481 24.8842 98.4134 24.6103C98.3661 23.8571 98.3661 22.4191 98.3661 20.9355V15.4805Z" fill="#7D7D7D"/>
<path d="M106.656 21.529C106.656 23.6517 106.515 23.8571 105.452 23.9712L104.389 24.0853C104.2 24.2223 104.2 24.7472 104.389 24.8842C106.042 24.8385 107.27 24.8157 108.404 24.8157C109.467 24.8157 110.647 24.8385 112.182 24.8842C112.348 24.7472 112.348 24.2223 112.182 24.0853L111.238 23.9712C110.175 23.8343 110.033 23.6517 110.033 21.529V11.4634C110.033 10.8699 110.104 10.8015 110.671 10.8015H112.088C113.859 10.8015 114.19 11.8742 114.591 13.335C114.709 13.5176 115.347 13.4719 115.465 13.2665C115.418 11.9655 115.583 10.1167 115.819 9.34068C115.772 9.27221 115.607 9.18091 115.465 9.18091C115.323 9.18091 115.252 9.20373 115.158 9.24938C114.945 9.7287 114.591 9.75152 113.032 9.75152H104.248C102.453 9.75152 102.382 9.66022 102.264 9.27221C102.169 9.20373 102.051 9.18091 101.933 9.18091C101.815 9.18091 101.697 9.22656 101.603 9.29503C101.437 10.1852 101.319 11.6003 100.823 13.1752C100.965 13.4719 101.414 13.5176 101.697 13.3806C102.405 11.7144 102.901 10.8015 104.625 10.8015H106.09C106.656 10.8015 106.656 10.9156 106.656 11.4634V21.529Z" fill="#7D7D7D"/>
</svg>
